<svg xmlns="http://www.w3.org/2000/svg" width="512" height="512" viewBox="0 0 512 512" fill="none"><path d="M256.109 495.947C224.744 496.618 193.474 490.955 164.315 479.051C135.156 467.244 108.682 449.581 86.429 427.118C64.176 404.656 46.6229 377.969 34.9209 348.499C23.2189 319.124 17.4638 287.542 18.0393 255.768C17.5597 224.089 23.3148 192.507 35.1127 163.133C46.9107 133.758 64.4637 107.072 86.6209 84.7051C108.874 62.3383 135.347 44.6753 164.411 32.9639C193.666 21.1566 224.744 15.3969 256.109 16.0689C287.378 15.3009 318.552 20.9646 347.615 32.6759C376.678 44.4833 403.152 62.0503 425.213 84.5131C447.37 106.88 464.731 133.662 476.433 163.037C488.039 192.507 493.699 223.993 492.931 255.672C493.507 287.35 487.847 318.836 476.145 348.211C464.443 377.585 447.082 404.272 424.925 426.734C402.864 449.197 376.486 466.86 347.519 478.763C318.552 490.667 287.474 496.523 256.109 495.947ZM256.109 359.346C314.235 359.346 346.176 317.78 346.176 255.768C346.176 193.755 314.235 151.517 256.109 151.517C197.982 151.517 165.562 193.083 165.562 255.768C165.562 318.452 196.256 359.346 256.109 359.346Z" fill="#27316C"/></svg>