<svg
    viewBox="0 0 24 24"
    xmlns="http://www.w3.org/2000/svg"
>
    <path
        d="M23.93 7.05C23.9099 6.05524 23.7206 5.07116 23.37 4.14C23.0653 3.34064 22.5951 2.61471 21.9902 2.0098C21.3853 1.4049 20.6594 0.934688 19.86 0.63C18.9446 0.284951 17.9779 0.0956656 17 0.07C15.67 0 15.26 0 12 0C8.74 0 8.33 0 7.05 0.07C6.05524 0.0900524 5.07116 0.279428 4.14 0.63C3.34064 0.934688 2.61471 1.4049 2.0098 2.0098C1.4049 2.61471 0.934688 3.34064 0.63 4.14C0.279428 5.07116 0.0900524 6.05524 0.07 7.05C0 8.33 0 8.74 0 12C0 15.26 0 15.67 0.07 17C0.09 17.995 0.28 18.979 0.63 19.91C0.934688 20.7094 1.4049 21.4353 2.0098 22.0402C2.61471 22.6451 3.34064 23.1153 4.14 23.42C5.07116 23.7706 6.05524 23.9599 7.05 23.98C8.33 24 8.74 24 12 24C15.26 24 15.67 24 16.95 23.93C17.9449 23.9109 18.9291 23.7215 19.86 23.37C20.6575 23.062 21.3817 22.5907 21.9862 21.9862C22.5907 21.3817 23.062 20.6575 23.37 19.86C23.715 18.9446 23.9043 17.9779 23.93 17C24 15.67 24 15.26 24 12C24 8.74 24 8.33 23.93 7.05ZM21.77 16.85C21.7584 17.6119 21.6163 18.3661 21.35 19.08C21.1489 19.5946 20.8434 20.062 20.4527 20.4527C20.062 20.8434 19.5946 21.1489 19.08 21.35C18.3661 21.6163 17.6119 21.7584 16.85 21.77C15.58 21.83 15.2 21.84 12 21.84C8.8 21.84 8.42 21.84 7.15 21.77C6.38814 21.7584 5.63389 21.6163 4.92 21.35C4.39898 21.1608 3.92729 20.8566 3.54 20.46C3.14345 20.0727 2.83925 19.601 2.65 19.08C2.38365 18.3661 2.2416 17.6119 2.23 16.85C2.17 15.58 2.16 15.2 2.16 12C2.16 8.8 2.16 8.42 2.23 7.15C2.2416 6.38813 2.38365 5.63389 2.65 4.92C2.83925 4.39899 3.14345 3.92731 3.54 3.54C3.92731 3.14345 4.39899 2.83925 4.92 2.65C5.63389 2.38365 6.38813 2.2416 7.15 2.23C8.42 2.17 8.8 2.16 12 2.16C15.2 2.16 15.58 2.16 16.85 2.23C17.6119 2.2416 18.3661 2.38365 19.08 2.65C19.601 2.84 20.073 3.143 20.46 3.54C20.857 3.927 21.16 4.399 21.35 4.92C21.616 5.634 21.758 6.388 21.77 7.15C21.83 8.42 21.84 8.8 21.84 12C21.84 15.2 21.83 15.58 21.77 16.85Z"
    />
    <path
        d="M12 5.83984C10.3662 5.83984 8.79941 6.48884 7.64419 7.64407C6.48896 8.79929 5.83997 10.3661 5.83997 11.9998C5.83997 13.6336 6.48896 15.2004 7.64419 16.3556C8.79941 17.5108 10.3662 18.1598 12 18.1598C13.6337 18.1598 15.2005 17.5108 16.3557 16.3556C17.511 15.2004 18.16 13.6336 18.16 11.9998C18.16 10.3661 17.511 8.79929 16.3557 7.64407C15.2005 6.48884 13.6337 5.83984 12 5.83984ZM12 15.9998C11.4694 16.0082 10.9425 15.911 10.4499 15.7138C9.95733 15.5165 9.5089 15.2233 9.13074 14.851C8.75259 14.4788 8.45228 14.0351 8.24728 13.5457C8.04229 13.0563 7.93672 12.531 7.93672 12.0003C7.93672 11.4697 8.04229 10.9444 8.24728 10.455C8.45228 9.9656 8.75259 9.52186 9.13074 9.14964C9.5089 8.77742 9.95733 8.48416 10.4499 8.28693C10.9425 8.0897 11.4694 7.99245 12 8.00084C13.0497 8.01744 14.0509 8.44612 14.7874 9.19437C15.5239 9.94261 15.9367 10.9504 15.9367 12.0003C15.9367 13.0503 15.5239 14.0581 14.7874 14.8063C14.0509 15.5546 13.0497 15.9832 12 15.9998Z"
    />
    <path
        d="M19.85 5.5899C19.85 5.97181 19.6983 6.33808 19.4282 6.60814C19.1582 6.87819 18.7919 7.0299 18.41 7.0299C18.0281 7.0299 17.6618 6.87819 17.3917 6.60814C17.1217 6.33808 16.97 5.97181 16.97 5.5899C16.97 5.20799 17.1217 4.84172 17.3917 4.57167C17.6618 4.30162 18.0281 4.1499 18.41 4.1499C18.7919 4.1499 19.1582 4.30162 19.4282 4.57167C19.6983 4.84172 19.85 5.20799 19.85 5.5899Z"
    />
</svg>
